<?xml version="1.0" encoding="utf-8"?>

<!-- Pulled from https://leungwensen.github.io/svg-icon/ -->

<!-- This file contains the following svgs: -->
<!-- ant-design ant-caret-left -->
<!-- ant-design ant-caret-right -->
<!-- ant-design ant-step-backward -->
<!-- ant-design ant-step-forward -->
<!-- bootstrap boostrap-menu-hamburger -->
<!-- flat-ui flat-check -->
<!-- flat-ui flat-gear -->
<!-- flat-ui flat-trash -->
<!-- font-awesome awesome-cog -->
<!-- font-awesome awesome-lightbulb-o -->
<!-- font-awesome awesome-wrench -->
<!-- foundation foundation-lightbulb -->
<!-- foundation foundation-puzzle -->
<!-- bootstrap boostrap-pawn -->
<!-- entypo entypo-forward -->
<!-- bootstrap bootstrap-retweet -->
<!-- elusive-iconfont elusive-bookmark -->

<svg xmlns="http://www.w3.org/2000/svg" xmlns:xlink="http://www.w3.org/1999/xlink" version="1.1"
  style="width:0;height:0;position:absolute;overflow:hidden;">
  <defs>
    <symbol viewBox="0 0 638 1030" aria-labelledby="bdsi-ant-caret-left-title"
      id="si-ant-caret-left">
      <title id="bdsi-ant-caret-left-title">icon caret-left</title>
      <path
        d="M570 13L12 489Q0 500 0 515t12 26l558 476q19 16 43.5 7t24.5-33V39q0-24-24.5-33T570 13z" />
    </symbol>
    <symbol viewBox="0 0 638 1030" aria-labelledby="besi-ant-caret-right-title"
      id="si-ant-caret-right">
      <title id="besi-ant-caret-right-title">icon caret-right</title>
      <path d="M68 13l558 476q12 11 12 26t-12 26L68 1017q-19 16-43.5 7T0 991V39Q0 15 24.5 6T68 13z" />
    </symbol>
    <symbol viewBox="0 0 702 1030" aria-labelledby="gesi-ant-step-backward-title"
      id="si-ant-step-backward">
      <title id="gesi-ant-step-backward-title">icon step-backward</title>
      <path
        d="M32 3q13 0 22.5 10.5T64 40v475q0-15 12-26L634 13q19-16 43.5-7T702 39v952q0 24-24.5 33t-43.5-7L76 541q-12-11-12-26v475q0 16-9.5 26.5T32 1027t-22.5-10.5T0 990V39q0-15 9.5-25.5T32 3z" />
    </symbol>
    <symbol viewBox="0 0 702 1030" aria-labelledby="gfsi-ant-step-forward-title"
      id="si-ant-step-forward">
      <title id="gfsi-ant-step-forward-title">icon step-forward</title>
      <path
        d="M670 3q-13 0-22.5 10.5T638 40v475q0-15-12-26L68 13Q49-3 24.5 6T0 39v952q0 24 24.5 33t43.5-7l558-476q12-10 12-26v475q0 16 9.5 26.5T670 1027t22.5-10.5T702 990V39q0-15-9.5-25.5T670 3z" />
    </symbol>
    <symbol viewBox="0 0 1000 1000" aria-labelledby="exsi-bootstrap-menu-hamburger-title"
      id="si-bootstrap-menu-hamburger">
      <title id="exsi-bootstrap-menu-hamburger-title">icon menu-hamburger</title>
      <path
        d="M25 0h950q10 0 17.5 7.5T1000 25v150q0 10-7.5 17.5T975 200H25q-10 0-17.5-7.5T0 175V25Q0 15 7.5 7.5T25 0zm0 400h950q10 0 17.5 7.5t7.5 17.5v150q0 10-7.5 17.5T975 600H25q-10 0-17.5-7.5T0 575V425q0-10 7.5-17.5T25 400zm0 400h950q10 0 17.5 7.5t7.5 17.5v150q0 10-7.5 17.5T975 1000H25q-10 0-17.5-7.5T0 975V825q0-10 7.5-17.5T25 800z" />
    </symbol>
    <symbol viewBox="0 0 1024.9599609375 773.2479248046875" aria-labelledby="amsi-flat-check-title"
      id="si-flat-check">
      <title id="amsi-flat-check-title">icon check</title>
      <path
        d="M921.985 12.544C909.632 0 889.216 0 876.865 12.544L400.705 487.04c-12.48 12.544-32.833 12.544-45.249 0l-208.64-212.736c-6.144-6.208-14.272-9.408-22.336-9.472-8.256 0-16.576 3.008-22.848 9.472l-92.16 83.008C3.328 363.584 0 371.456 0 379.648c0 8.32 3.328 17.024 9.472 23.232L219.84 623.872c12.416 12.48 32.832 33.024 45.248 45.632l90.432 91.264c12.416 12.48 32.768 12.48 45.248 0L1012.48 149.44c12.48-12.48 12.48-33.088 0-45.632l-90.496-91.264z" />
    </symbol>
    <symbol viewBox="0 0 1023.7440185546875 1024" aria-labelledby="bhsi-flat-gear-title"
      id="si-flat-gear">
      <title id="bhsi-flat-gear-title">icon gear</title>
      <path
        d="M918.143 432.96c-17.344-2.56-35.968-18.304-41.344-35.008l-26.111-63.232c-8.128-15.552-6.272-39.872 4.352-53.952l42.112-56.192c10.624-14.08 9.728-36.352-1.984-49.536l-46.272-46.4c-13.12-11.712-35.52-12.544-49.6-1.984l-56.128 42.24c-14.144 10.496-38.4 12.48-54.016 4.288l-63.168-26.048c-16.832-5.312-32.64-24-35.008-41.472l-9.984-69.504c-2.496-17.408-18.816-33.152-36.352-34.944 0 0-10.816-1.216-32.768-1.216s-32.768 1.216-32.768 1.216c-17.536 1.792-33.92 17.536-36.352 34.944l-9.984 69.504c-2.432 17.472-18.176 36.16-35.008 41.472l-63.168 26.048c-15.552 8.192-39.808 6.208-53.888-4.288l-56.256-42.24c-14.016-10.624-36.416-9.728-49.6 1.984l-46.208 46.272c-11.648 13.184-12.544 35.52-1.984 49.6l42.176 56.192c10.56 14.08 12.48 38.4 4.288 53.952l-26.048 63.296c-5.376 16.704-24 32.448-41.408 35.008l-69.504 9.792c-17.472 2.56-33.216 18.88-35.008 36.416 0 0-1.152 10.88-1.152 32.832 0 21.952 1.152 32.896 1.152 32.896 1.856 17.472 17.6 33.792 35.008 36.288l69.504 9.856c17.408 2.496 36.032 18.304 41.408 35.008l26.112 63.232c8.192 15.616 6.272 39.808-4.288 53.888l-42.176 56.256c-10.56 14.144-13.12 33.28-5.632 42.496 7.424 9.216 28.864 32.064 28.928 32.064 0 .128 7.232 6.72 16 14.656 8.768 8.064 44.48 19.2 58.56 8.64l56.256-42.112c14.08-10.624 38.336-12.544 53.888-4.352l63.04 25.984c16.832 5.44 32.576 24 35.008 41.472l9.984 69.504c2.432 17.344 18.816 33.28 36.288 35.072 0 0 10.88 1.152 32.832 1.152s32.768-1.152 32.768-1.152c17.472-1.792 33.856-17.664 36.352-35.072l9.984-69.504c2.368-17.472 18.112-36.032 35.008-41.472l63.104-25.984c15.616-8.192 39.872-6.272 54.016 4.224l56.256 42.24c14.144 10.56 36.352 9.664 49.6-1.92l46.272-46.336c11.648-13.184 12.48-35.52 1.856-49.6l-42.112-56.256c-10.624-14.08-12.48-38.272-4.352-53.888l26.112-63.232c5.376-16.768 24-32.512 41.344-35.008l69.504-9.856c17.344-2.496 33.152-18.816 35.008-36.288 0 0 1.152-10.88 1.152-32.896 0-21.952-1.152-32.832-1.152-32.832-1.856-17.536-17.6-33.856-35.008-36.416l-69.44-9.792zM511.871 640c-70.656 0-128-57.344-128-128 0-70.72 57.344-128 128-128 70.592 0 128 57.344 128 128s-57.344 128-128 128z" />
    </symbol>
    <symbol viewBox="0 0 960 1024" aria-labelledby="djsi-flat-trash-title" id="si-flat-trash">
      <title id="djsi-flat-trash-title">icon trash</title>
      <path
        d="M896 256h-64v640s-1.984 128-128 128H256c-129.984 0-128-128-128-128V256H64c-35.328 0-64-28.672-64-64s28.672-64 64-64h320V96c0-53.056 42.944-96 96-96 52.992 0 96 42.944 96 96v32h320c35.392 0 64 28.608 64 64s-28.608 64-64 64zm-192 0H256v640h448V256zm-320 64c35.328 0 64 28.672 64 64v384c0 35.392-28.672 64-64 64s-64-28.608-64-64V384c0-35.328 28.672-64 64-64zm192 0c35.392 0 64 28.672 64 64v384c0 35.392-28.608 64-64 64s-64-28.608-64-64V384c0-35.328 28.608-64 64-64z" />
    </symbol>

    <symbol viewBox="0 0 1536 1536" aria-labelledby="fysi-awesome-cog-title" id="si-awesome-cog">
      <title id="fysi-awesome-cog-title">icon cog</title>
      <path
        d="M1024 768q0-106-75-181t-181-75-181 75-75 181 75 181 181 75 181-75 75-181zm512-109v222q0 12-8 23t-20 13l-185 28q-19 54-39 91 35 50 107 138 10 12 10 25t-9 23q-27 37-99 108t-94 71q-12 0-26-9l-138-108q-44 23-91 38-16 136-29 186-7 28-36 28H657q-14 0-24.5-8.5T621 1506l-28-184q-49-16-90-37l-141 107q-10 9-25 9-14 0-25-11-126-114-165-168-7-10-7-23 0-12 8-23 15-21 51-66.5t54-70.5q-27-50-41-99L29 913q-13-2-21-12.5T0 877V655q0-12 8-23t19-13l186-28q14-46 39-92-40-57-107-138-10-12-10-24 0-10 9-23 26-36 98.5-107.5T337 135q13 0 26 10l138 107q44-23 91-38 16-136 29-186 7-28 36-28h222q14 0 24.5 8.5T915 30l28 184q49 16 90 37l142-107q9-9 24-9 13 0 25 10 129 119 165 170 7 8 7 22 0 12-8 23-15 21-51 66.5t-54 70.5q26 50 41 98l183 28q13 2 21 12.5t8 23.5z" />
    </symbol>
    <symbol viewBox="0 0 1024 1536" aria-labelledby="nmsi-awesome-lightbulb-o-title"
      id="si-awesome-lightbulb-o">
      <title id="nmsi-awesome-lightbulb-o-title">icon lightbulb-o</title>
      <path
        d="M736 448q0 13-9.5 22.5T704 480t-22.5-9.5T672 448q0-46-54-71t-106-25q-13 0-22.5-9.5T480 320t9.5-22.5T512 288q50 0 99.5 16t87 54 37.5 90zm160 0q0-72-34.5-134t-90-101.5-123-62T512 128t-136.5 22.5-123 62-90 101.5T128 448q0 101 68 180 10 11 30.5 33t30.5 33q128 153 141 298h228q13-145 141-298 10-11 30.5-33t30.5-33q68-79 68-180zm128 0q0 155-103 268-45 49-74.5 87T787 898.5 753 1006q47 28 47 82 0 37-25 64 25 27 25 64 0 52-45 81 13 23 13 47 0 46-31.5 71t-77.5 25q-20 44-60 70t-87 26-87-26-60-70q-46 0-77.5-25t-31.5-71q0-24 13-47-45-29-45-81 0-37 25-64-25-27-25-64 0-54 47-82-4-50-34-107.5T177.5 803 103 716Q0 603 0 448q0-99 44.5-184.5t117-142 164-89T512 0t186.5 32.5 164 89 117 142T1024 448z" />
    </symbol>
    <symbol viewBox="0 0 1641 1643" aria-labelledby="yasi-awesome-wrench-title"
      id="si-awesome-wrench">
      <title id="yasi-awesome-wrench-title">icon wrench</title>
      <path
        d="M363 1344q0-26-19-45t-45-19-45 19-19 45 19 45 45 19 45-19 19-45zm644-420l-682 682q-37 37-90 37-52 0-91-37L38 1498q-38-36-38-90 0-53 38-91l681-681q39 98 114.5 173.5T1007 924zm634-435q0 39-23 106-47 134-164.5 217.5T1195 896q-185 0-316.5-131.5T747 448t131.5-316.5T1195 0q58 0 121.5 16.5T1424 63q16 11 16 28t-16 28l-293 169v224l193 107q5-3 79-48.5t135.5-81T1609 454q15 0 23.5 10t8.5 25z" />
    </symbol>
    <symbol viewBox="0 0 83.22600555419922 92.15200805664062"
      aria-labelledby="dvsi-foundation-lightbulb-title" id="si-foundation-lightbulb">
      <title id="dvsi-foundation-lightbulb-title">icon lightbulb</title>
      <path
        d="M71.915 14.991l.042-.042-.008-.008a1.447 1.447 0 0 0-.033-2.003l-2.053-2.053a1.447 1.447 0 0 0-2.003-.033l-.009-.009-8.842 8.843a1.452 1.452 0 0 0 0 2.053l2.053 2.054h.001a1.452 1.452 0 0 0 2.053 0l8.799-8.802zm-31.754.359v.001h2.903v-.001c.782 0 1.415-.619 1.446-1.393h.006V1.454c0-.802-.65-1.452-1.452-1.452V0h-2.903v.001c-.802 0-1.452.65-1.452 1.452v12.504h.006a1.449 1.449 0 0 0 1.446 1.393zm43.065 20.723c0-.783-.619-1.415-1.393-1.446v-.006H69.329c-.802 0-1.452.649-1.452 1.452v2.903c0 .803.65 1.453 1.452 1.453h12.504v-.006a1.45 1.45 0 0 0 1.393-1.447v-2.903zM41.613 20.277c-11.756 0-21.285 9.529-21.285 21.285a21.16 21.16 0 0 0 3.968 12.346h-.008c3.174 4.952 5.157 11.512 5.303 18.739.255.419.711.703 1.237.703.056 0 .109-.01.163-.017v.017h21.172v-.017c.054.006.107.017.162.017a1.45 1.45 0 0 0 1.303-.822c.175-7.584 2.371-14.429 5.843-19.439 2.154-3.324 3.427-7.27 3.427-11.526 0-11.757-9.529-21.286-21.285-21.286zm10.712 65.587c-.056 0-.108.01-.162.017v-.017H30.991v.017c-.054-.006-.107-.017-.163-.017-.801 0-1.452.649-1.452 1.452V90.7c0 .802.65 1.452 1.452 1.452.056 0 .109-.01.163-.017v.017h21.172v-.016c.054.006.107.016.162.016.802 0 1.452-.65 1.452-1.452v-3.384c0-.803-.65-1.452-1.452-1.452zm0-9.44c-.056 0-.108.01-.162.017v-.017H30.991v.017c-.054-.006-.107-.017-.163-.017a1.45 1.45 0 0 0-1.447 1.403l-.005.057v3.376c0 .802.65 1.452 1.452 1.452.056 0 .109-.01.163-.017v.017h21.172v-.016c.054.006.107.017.162.017.802 0 1.452-.65 1.452-1.452v-3.385c0-.803-.65-1.452-1.452-1.452zM13.957 35.761v-.006H1.452c-.802 0-1.452.65-1.452 1.451v2.904c0 .801.65 1.451 1.452 1.451h12.505v-.005a1.45 1.45 0 0 0 1.393-1.445v-2.905a1.45 1.45 0 0 0-1.393-1.445zm-2.145-21.27l8.842 8.843.009-.009c.569.523 1.45.519 2.002-.033h.001l2.053-2.054a1.446 1.446 0 0 0 .033-2.003l.009-.009-8.843-8.842a1.453 1.453 0 0 0-2.053 0l-2.053 2.053a1.453 1.453 0 0 0 0 2.054z" />
    </symbol>
    <symbol viewBox="0 0 57.19000244140625 78.13111877441406"
      aria-labelledby="ggsi-foundation-puzzle-title" id="si-foundation-puzzle">
      <title id="ggsi-foundation-puzzle-title">icon puzzle</title>
      <path
        d="M57.183 37.84V24.953h-.001A3.967 3.967 0 0 0 53.312 21v-.038H41.26c-.059.002-.115.018-.175.018s-.116-.016-.175-.018h-.203v-.02c-2.8-.199-5.016-2.509-5.016-5.357 0-1.236.432-2.36 1.131-3.27h-.106a8.168 8.168 0 0 0 1.098-4.093 8.221 8.221 0 0 0-8.223-8.22 8.22 8.22 0 0 0-8.221 8.22c0 1.491.403 2.886 1.098 4.092h-.091a5.35 5.35 0 0 1 1.117 3.256c0 2.847-2.216 5.157-5.017 5.354v.038H3.955v.02A3.972 3.972 0 0 0 0 24.953c0 .058.015.112.017.17v13.421H.06a2.245 2.245 0 0 0 2.243 2.244c.226 0 .44-.045.645-.109a9.727 9.727 0 0 1 3.883-.808c5.393 0 9.764 4.371 9.764 9.762 0 5.392-4.371 9.762-9.764 9.762a9.731 9.731 0 0 1-3.788-.763 2.23 2.23 0 0 0-.769-.144 2.24 2.24 0 0 0-2.242 2.244c0 .127.017.25.038.372H.017v12.884c-.003.058-.017.112-.017.17a3.975 3.975 0 0 0 3.973 3.973c.109 0 .212-.023.319-.032h13.192a2.245 2.245 0 0 0 2.244-2.246c0-.248-.05-.48-.124-.704l-.004-.014c-.017-.05-.027-.106-.048-.155h.008a9.77 9.77 0 0 1-.397-2.74 9.76 9.76 0 0 1 9.762-9.763 9.761 9.761 0 0 1 9.762 9.762 9.76 9.76 0 0 1-.397 2.741h.025a2.245 2.245 0 0 0 2.066 3.123c.013 0 .025-.004.038-.004h12.792a3.974 3.974 0 0 0 3.969-3.933h.005V61.104h-.046a2.234 2.234 0 0 0-2.216-1.964v-.099a9.747 9.747 0 0 1-2.567.353c-5.392 0-9.763-4.37-9.763-9.762 0-5.39 4.371-9.762 9.763-9.762.89 0 1.748.13 2.567.353v-.094l.025.002c1.01 0 1.853-.67 2.134-1.588h.103v-.605c0-.017.005-.032.005-.049-.002-.017-.006-.032-.007-.049z" />
    </symbol>
    <symbol viewBox="0 0 256 448.0000305175781" aria-labelledby="aunsi-ionic-lightbulb-title"
      id="si-ionic-lightbulb">
      <title id="aunsi-ionic-lightbulb-title">icon lightbulb</title>
      <path
        d="M128 0C57.3 0 0 55.4 0 123.8c0 4.9.3 9.7.9 14.5.6 5.4 1.6 10.6 3 15.7.1.5.3 1.1.4 1.6 16.6 62.8 45.3 71.5 58.9 167.6 0 .2.1.4.1.5 1.5 9.2 9.8 12.3 19.8 12.3H173c10 0 18.2-3.1 19.7-12.3 0-.2.1-.4.1-.5 13.6-96.1 42.3-104.7 58.9-167.6.2-.5.3-1 .4-1.6 1.3-5.1 2.3-10.4 3-15.7.6-4.7.9-9.6.9-14.5C256 55.4 198.7 0 128 0zm61.8 364.5c.1-.2.3-.4.4-.6 1.1-1.7 1.7-3.6 1.7-5.7 0-3.5 1.6-6.2-6.5-6.2H70.6c-8.1 0-6.5 2.1-6.5 6.2 0 2.1.6 4 1.7 5.7.1.2.3.4.5.6 0 .1.1.1.1.2 1.7 2.6 2.7 4.4 2.7 7.6 0 3.1-.9 4.9-2.6 7.5-.3.4-.5.7-.7 1-1 1.7-1.6 3.6-1.6 5.6 0 2.1.6 4 1.7 5.8.1.2.3.4.4.6 1.8 2.7 2.8 4.5 2.8 7.8 0 3.1-.9 4.9-2.6 7.4-.2.4-.5.7-.8 1.1-1 1.7-1.6 3.6-1.6 5.6 0 5.4 4.3 10.1 10.2 11.6.3.1.6.1.9.2 6 1.4 12.2 1.6 18.5 2.5.7.1 1.4.2 2.2.3 5.6 1 10.3 3.9 13.4 7.7 3.8 5.3 10.8 11 18.8 11 7.6 0 14.3-5.4 18.2-10.4 3-4.2 8-7.3 13.9-8.4.7-.1 1.4-.3 2.2-.3 6.3-.9 12.5-1.1 18.5-2.5.3-.1.6-.1.9-.2 5.9-1.6 10.2-6.2 10.2-11.6 0-2-.6-3.9-1.6-5.6-.3-.4-.5-.7-.8-1.1-1.6-2.6-2.6-4.3-2.6-7.4 0-3.2 1-5.1 2.8-7.8.1-.2.3-.4.4-.6 1.1-1.7 1.7-3.7 1.7-5.8 0-2-.6-3.9-1.6-5.6-.3-.3-.5-.7-.7-1-1.6-2.6-2.6-4.3-2.6-7.5s1-5 2.7-7.6c0 .1 0 0 .1-.1z" />
    </symbol>
    <symbol viewBox="0 0 425.70001220703125 389" aria-labelledby="axksi-ionic-settings-title"
      id="si-ionic-settings">
      <title id="axksi-ionic-settings-title">icon settings</title>
      <path
        d="M411 74.7l-47.7 48.5-2.7 2.8-1.6 1.7c-1.1.8-2.4 1.2-3.9 1.2-1.6 0-3.1-.6-4.3-1.6l-.9-.9-2.7-2.7-41.3-42.1-2.2-2.2-1.7-1.7c-1-1.5-1.6-3.4-1.6-5.3 0-1.7.6-3.2 1.6-4.4l.7-.8 2.6-2.6 47.9-48.7C348.1 5.8 328.5 1 318.1 1.8c-17.1 1.3-34.7 7-52.8 25.5-.7.8-1.5 1.6-2.2 2.3-24.6 26.8-29.5 62.8-19.5 95.8.7 1.4 1.3 3.1 1.6 4.6 1.1 5.5-.4 10.2-4 13.5l-37.9 36.4c-11.8-12-13.5-13.6-13.5-13.6-2-2-6-3.3-9.5-1.2l-5.9 3.6c-22.7-23.1-32.3-32.4-35.4-43.6-3.2-11.7-.3-27.3 2.7-33.1 2.5-4.6 10.3-8.9 16.9-9.4l8.6 8.8c2 2 5.1 2 7.1 0L205.2 60c2-2 2-5.3 0-7.3L155.3 2c-2-2-5.2-2-7.1 0l-30.9 31.4c-2 2-2 5.3 0 7.3l3.3 3.4c0 4.9-.7 12.5-4.7 16.6-6.2 6.3-18.5-1-26.5 4.7-7.9 5.6-17.9 14.6-24.3 21-6.3 6.4-30.5 31.8-47.8 74.6-17.3 42.8-4 82.5 5.4 92.9 5 5.5 14.1 11.1 12.5.7-1.6-10.5-4.2-46.9 7.7-61.8 11.9-14.9 27.6-27.1 48-28.1 19.6-1 30.9 5.7 56.3 31.5l-2.8 5.2c-1.8 3.4-.8 7.7 1.2 9.7 0 0 1.5 1.6 12.1 12.4l-97.2 93.2c-16.2 14.3-15.3 40.5-.3 56 15.2 15.2 41.1 16.3 55.2-.2l91.4-98.6c49.1 52.3 93.3 107.4 93.3 107.4 2 2 5.2 2 7.1 0l49.9-50.7c2-2 2-5.2 0-7.3 0 0-55.2-45.7-107-96.2l35.5-38.3c3.3-3.7 7.9-5.2 13.3-4.1 1.5.3 3.1 1 4.5 1.7 32.4 10.2 67.8 5.2 94-19.8.8-.7 1.5-1.5 2.3-2.3 18.1-18.4 23.7-36.4 25-53.8 1-10.6-3.5-30.3-13.7-35.8z" />
    </symbol>

    <symbol viewBox="0 0 425.70001220703125 389" aria-labelledby="axksi-ionic-settings-title"
      id="si-ionic-settings">
      <title id="axksi-ionic-settings-title">icon settings</title>
      <path
        d="M411 74.7l-47.7 48.5-2.7 2.8-1.6 1.7c-1.1.8-2.4 1.2-3.9 1.2-1.6 0-3.1-.6-4.3-1.6l-.9-.9-2.7-2.7-41.3-42.1-2.2-2.2-1.7-1.7c-1-1.5-1.6-3.4-1.6-5.3 0-1.7.6-3.2 1.6-4.4l.7-.8 2.6-2.6 47.9-48.7C348.1 5.8 328.5 1 318.1 1.8c-17.1 1.3-34.7 7-52.8 25.5-.7.8-1.5 1.6-2.2 2.3-24.6 26.8-29.5 62.8-19.5 95.8.7 1.4 1.3 3.1 1.6 4.6 1.1 5.5-.4 10.2-4 13.5l-37.9 36.4c-11.8-12-13.5-13.6-13.5-13.6-2-2-6-3.3-9.5-1.2l-5.9 3.6c-22.7-23.1-32.3-32.4-35.4-43.6-3.2-11.7-.3-27.3 2.7-33.1 2.5-4.6 10.3-8.9 16.9-9.4l8.6 8.8c2 2 5.1 2 7.1 0L205.2 60c2-2 2-5.3 0-7.3L155.3 2c-2-2-5.2-2-7.1 0l-30.9 31.4c-2 2-2 5.3 0 7.3l3.3 3.4c0 4.9-.7 12.5-4.7 16.6-6.2 6.3-18.5-1-26.5 4.7-7.9 5.6-17.9 14.6-24.3 21-6.3 6.4-30.5 31.8-47.8 74.6-17.3 42.8-4 82.5 5.4 92.9 5 5.5 14.1 11.1 12.5.7-1.6-10.5-4.2-46.9 7.7-61.8 11.9-14.9 27.6-27.1 48-28.1 19.6-1 30.9 5.7 56.3 31.5l-2.8 5.2c-1.8 3.4-.8 7.7 1.2 9.7 0 0 1.5 1.6 12.1 12.4l-97.2 93.2c-16.2 14.3-15.3 40.5-.3 56 15.2 15.2 41.1 16.3 55.2-.2l91.4-98.6c49.1 52.3 93.3 107.4 93.3 107.4 2 2 5.2 2 7.1 0l49.9-50.7c2-2 2-5.2 0-7.3 0 0-55.2-45.7-107-96.2l35.5-38.3c3.3-3.7 7.9-5.2 13.3-4.1 1.5.3 3.1 1 4.5 1.7 32.4 10.2 67.8 5.2 94-19.8.8-.7 1.5-1.5 2.3-2.3 18.1-18.4 23.7-36.4 25-53.8 1-10.6-3.5-30.3-13.7-35.8z" />
    </symbol>
    <symbol viewBox="0 0 1200 1181" aria-labelledby="fzsi-bootstrap-pawn-title"
      id="si-bootstrap-pawn">
      <title id="fzsi-bootstrap-pawn-title">icon pawn</title>
      <path
        d="M600 0q75 0 128 53t53 128-53 128-128 53-128-53-53-128 53-128T600 0zm2 383h46q34 0 55.5 28.5T725 498q0 76 39 183H440q39-107 39-183 0-58 21.5-86.5T557 383h45zM250 781h700q21 0 35.5 14.5T1000 831t-14.5 35.5T950 881h-13l138 100H125l137-100h-12q-21 0-35.5-14.5T200 831t14.5-35.5T250 781zM50 1081h1100q21 0 35.5 14.5t14.5 35.5v50H0v-50q0-21 14.5-35.5T50 1081z" />
    </symbol>

    <symbol viewBox="0 0 900 680" aria-labelledby="efsi-entypo-forward-title" id="si-entypo-forward">
      <title id="efsi-entypo-forward-title">icon forward</title>
      <path
        d="M540 438c-140 0-250.667 15-332 45S57.333 578.667 0 680c2.667-13.333 7-31 13-53s22.667-61 50-117 59.333-105.333 96-148 88.667-81.667 156-117 142.333-53 225-53V0l360 322-360 334V438" />
    </symbol>

    <symbol viewBox="0 0 1555.3333740234375 900" aria-labelledby="hbsi-bootstrap-retweet-title"
      id="si-bootstrap-retweet">
      <title id="hbsi-bootstrap-retweet-title">icon retweet</title>
      <path
        d="M581.667 0h746q21 0 35.5 14.5t14.5 35.5v551h150q21 0 25 10.5t-10 24.5l-230 249q-14 15-35 15t-35-15l-230-249q-14-14-10-24.5t25-10.5h150V200h-381zm-269 16l230 249q14 14 10 24.5t-25 10.5h-150v400h385l215 200h-750q-21 0-35.5-14.5t-14.5-35.5V300h-150q-21 0-25-10.5t10-24.5l230-249q14-15 35-15t35 15z" />
    </symbol>
    <symbol viewBox="0 0 731.25 1200" aria-labelledby="aysi-elusive-bookmark-title" id="si-elusive-bookmark">
      <title id="aysi-elusive-bookmark-title">icon bookmark</title>
      <path d="M0 0v1200l365.625-365.625L731.25 1200V0H0z"/>
    </symbol>
  </defs>
</svg>
